<?xml version="1.0" standalone="no"?>
<!DOCTYPE svg PUBLIC "-//W3C//DTD SVG 20010904//EN"
 "http://www.w3.org/TR/2001/REC-SVG-20010904/DTD/svg10.dtd">
<svg version="1.0" xmlns="http://www.w3.org/2000/svg"
 width="150.000000pt" height="150.000000pt" viewBox="0 0 150.000000 150.000000"
 preserveAspectRatio="xMidYMid meet">
<metadata>
Created by potrace 1.14, written by Peter Selinger 2001-2017
</metadata>
<g transform="translate(0.000000,150.000000) scale(0.100000,-0.100000)"
fill="#000000" stroke="none">
<path d="M30 1485 c0 -5 204 -124 715 -418 185 -106 202 -118 229 -163 36 -60
148 -256 274 -474 119 -208 138 -240 187 -323 l40 -68 3 717 c1 394 -1 720 -4
723 -6 6 -1444 13 -1444 6z m690 -133 c0 -4 22 -45 50 -91 27 -47 48 -87 45
-89 -3 -3 -317 170 -334 184 -2 2 50 4 117 4 67 0 122 -3 122 -8z m640 -242
c0 -142 -4 -250 -9 -250 -9 0 -27 10 -219 121 -103 59 -96 50 -220 272 l-61
107 254 0 255 0 0 -250z m-98 -342 c50 -28 92 -57 94 -63 3 -6 3 -58 2 -116
l-3 -104 -63 108 c-35 59 -72 124 -83 143 -10 19 -27 46 -35 60 -9 13 -13 24
-9 24 4 0 48 -23 97 -52z"/>
</g>
</svg>
