<?xml version="1.0" encoding="UTF-8"?><svg xmlns="http://www.w3.org/2000/svg" viewBox="0 0 1080 1080"><defs><style>.b{fill:#fff;}.c{fill:#32322f;}.d{fill:#d6a500;}.e,.f{fill:#d6ab00;}.f{mix-blend-mode:multiply;}.g{isolation:isolate;}</style></defs><g class="g"><g id="a"><g><path class="b" d="M339.03,635.09c-23.07,0-41.84,18.77-41.84,41.84s18.77,41.84,41.84,41.84h401.94c23.07,0,41.84-18.77,41.84-41.84s-18.77-41.84-41.84-41.84H339.03Z"/><g><rect class="e" x="732.77" y="600.2" width="5.72" height="33.74"/><rect class="e" x="341.51" y="600.2" width="5.72" height="33.74"/></g><rect class="e" x="537.14" y="601.2" width="5.72" height="33.74"/><path class="b" d="M732.52,355.24c-38.55,0-72.94,17.74-95.49,45.49-22.55-27.75-56.95-45.49-95.49-45.49s-74.52,18.56-97.03,47.41c-22.51-28.85-57.6-47.41-97.03-47.41-67.92,0-122.98,55.06-122.98,122.98s55.06,122.98,122.98,122.98c39.43,0,74.52-18.56,97.03-47.41,22.51,28.85,57.6,47.41,97.03,47.41s72.94-17.74,95.49-45.49c22.55,27.75,56.95,45.49,95.49,45.49,67.92,0,122.98-55.06,122.98-122.98s-55.06-122.98-122.98-122.98Z"/><g><path class="c" d="M391.01,690.32h-18.53l-3.53,8.55h-9.46l17.78-39.9h9.12l17.84,39.9h-9.69l-3.53-8.55Zm-2.91-7.01l-6.33-15.28-6.33,15.28h12.66Z"/><path class="c" d="M417.28,698.27c-2.95-.85-5.31-1.97-7.1-3.33l3.14-6.95c1.71,1.25,3.74,2.26,6.1,3.02s4.71,1.14,7.07,1.14c2.62,0,4.56-.39,5.81-1.17s1.88-1.81,1.88-3.11c0-.95-.37-1.74-1.11-2.37s-1.69-1.13-2.85-1.51c-1.16-.38-2.73-.8-4.7-1.25-3.04-.72-5.53-1.44-7.47-2.17-1.94-.72-3.6-1.88-4.99-3.48-1.39-1.6-2.08-3.72-2.08-6.39,0-2.32,.63-4.42,1.88-6.3s3.15-3.37,5.67-4.48c2.53-1.1,5.62-1.65,9.26-1.65,2.55,0,5.04,.3,7.47,.91,2.43,.61,4.56,1.48,6.38,2.62l-2.85,7.01c-3.69-2.09-7.37-3.14-11.06-3.14-2.58,0-4.49,.42-5.73,1.25-1.24,.84-1.85,1.94-1.85,3.31s.71,2.38,2.14,3.05c1.43,.67,3.6,1.32,6.53,1.97,3.04,.72,5.53,1.45,7.47,2.17,1.94,.72,3.6,1.86,4.99,3.42s2.08,3.67,2.08,6.33c0,2.28-.64,4.36-1.91,6.24-1.27,1.88-3.18,3.37-5.73,4.47s-5.64,1.65-9.29,1.65c-3.15,0-6.2-.43-9.15-1.28Z"/><path class="c" d="M457.91,698.27c-2.95-.85-5.31-1.97-7.1-3.33l3.14-6.95c1.71,1.25,3.74,2.26,6.1,3.02s4.71,1.14,7.07,1.14c2.62,0,4.56-.39,5.81-1.17s1.88-1.81,1.88-3.11c0-.95-.37-1.74-1.11-2.37s-1.69-1.13-2.85-1.51c-1.16-.38-2.73-.8-4.7-1.25-3.04-.72-5.53-1.44-7.47-2.17-1.94-.72-3.6-1.88-4.99-3.48-1.39-1.6-2.08-3.72-2.08-6.39,0-2.32,.63-4.42,1.88-6.3s3.15-3.37,5.67-4.48c2.53-1.1,5.62-1.65,9.26-1.65,2.55,0,5.04,.3,7.47,.91,2.43,.61,4.56,1.48,6.38,2.62l-2.85,7.01c-3.69-2.09-7.37-3.14-11.06-3.14-2.58,0-4.49,.42-5.73,1.25-1.24,.84-1.85,1.94-1.85,3.31s.71,2.38,2.14,3.05c1.43,.67,3.6,1.32,6.53,1.97,3.04,.72,5.53,1.45,7.47,2.17,1.94,.72,3.6,1.86,4.99,3.42,1.39,1.56,2.08,3.67,2.08,6.33,0,2.28-.64,4.36-1.91,6.24-1.27,1.88-3.18,3.37-5.73,4.47s-5.64,1.65-9.29,1.65c-3.15,0-6.2-.43-9.15-1.28Z"/><path class="c" d="M494.58,658.97h9.23v39.9h-9.23v-39.9Z"/><path class="c" d="M521.5,698.27c-2.95-.85-5.31-1.97-7.1-3.33l3.14-6.95c1.71,1.25,3.74,2.26,6.1,3.02s4.71,1.14,7.07,1.14c2.62,0,4.56-.39,5.82-1.17s1.88-1.81,1.88-3.11c0-.95-.37-1.74-1.11-2.37s-1.69-1.13-2.85-1.51c-1.16-.38-2.73-.8-4.7-1.25-3.04-.72-5.53-1.44-7.47-2.17-1.94-.72-3.6-1.88-4.99-3.48-1.39-1.6-2.08-3.72-2.08-6.39,0-2.32,.63-4.42,1.88-6.3s3.15-3.37,5.67-4.48c2.53-1.1,5.62-1.65,9.26-1.65,2.55,0,5.03,.3,7.47,.91,2.43,.61,4.56,1.48,6.38,2.62l-2.85,7.01c-3.69-2.09-7.37-3.14-11.06-3.14-2.58,0-4.49,.42-5.73,1.25-1.24,.84-1.85,1.94-1.85,3.31s.71,2.38,2.14,3.05c1.43,.67,3.6,1.32,6.53,1.97,3.04,.72,5.53,1.45,7.47,2.17,1.94,.72,3.6,1.86,4.99,3.42,1.39,1.56,2.08,3.67,2.08,6.33,0,2.28-.64,4.36-1.91,6.24-1.27,1.88-3.18,3.37-5.73,4.47s-5.64,1.65-9.29,1.65c-3.16,0-6.2-.43-9.15-1.28Z"/><path class="c" d="M566.47,666.49h-12.77v-7.52h34.77v7.52h-12.77v32.38h-9.24v-32.38Z"/><path class="c" d="M619.34,690.32h-18.53l-3.53,8.55h-9.46l17.78-39.9h9.12l17.84,39.9h-9.69l-3.54-8.55Zm-2.91-7.01l-6.33-15.28-6.33,15.28h12.65Z"/><path class="c" d="M677.26,658.97v39.9h-7.58l-19.89-24.23v24.23h-9.12v-39.9h7.64l19.84,24.23v-24.23h9.12Z"/><path class="c" d="M698.51,666.49h-12.77v-7.52h34.77v7.52h-12.77v32.38h-9.24v-32.38Z"/></g><rect class="e" x="344.62" y="629.22" width="388.66" height="5.72"/><circle class="f" cx="347.48" cy="478.22" r="122.98"/><path class="b" d="M298.66,430.66h47.11c10.91,0,20.59,2.04,29.04,6.12,8.44,4.08,14.99,9.87,19.64,17.37,4.65,7.5,6.97,16.28,6.97,26.33s-2.33,18.84-6.97,26.33c-4.65,7.5-11.2,13.29-19.64,17.37-8.45,4.08-18.13,6.12-29.04,6.12h-47.11v-99.64Zm45.98,77.15c8.54,0,15.4-2.42,20.57-7.26,5.17-4.84,7.76-11.53,7.76-20.07s-2.59-15.23-7.76-20.07c-5.17-4.84-12.03-7.26-20.57-7.26h-17.79v54.66h17.79Z"/><circle class="f" cx="541.53" cy="478.22" r="122.98"/><circle class="f" cx="732.52" cy="478.22" r="122.98"/><path class="b" d="M765.11,435.14c6.64,2.99,11.76,7.26,15.37,12.81,3.61,5.55,5.41,12.08,5.41,19.57s-1.8,14-5.41,19.5c-3.61,5.51-8.73,9.75-15.37,12.74-6.65,2.99-14.47,4.48-23.49,4.48h-17.37v26.05h-28.19v-99.64h45.55c9.01,0,16.84,1.49,23.49,4.48Zm-12.1,43.13c2.94-2.51,4.41-6.1,4.41-10.75s-1.47-8.26-4.41-10.82-7.31-3.84-13.09-3.84h-15.66v29.18h15.66c5.79,0,10.15-1.26,13.09-3.77Z"/><path class="b" d="M573.56,530.3l-.28-52.81-25.62,42.99h-12.53l-25.48-41.56v51.39h-26.05v-99.64h23.2l35.01,57.51,34.16-57.51h23.2l.28,99.64h-25.91Z"/><path class="d" d="M740.97,724.76H339.03c-26.38,0-47.84-21.46-47.84-47.84s21.46-47.84,47.84-47.84h401.94c26.38,0,47.84,21.46,47.84,47.84s-21.46,47.84-47.84,47.84Zm-401.94-89.68c-23.07,0-41.84,18.77-41.84,41.84s18.77,41.84,41.84,41.84h401.94c23.07,0,41.84-18.77,41.84-41.84s-18.77-41.84-41.84-41.84H339.03Z"/></g></g></g></svg>