<?xml version="1.0" encoding="utf-8"?>
<!-- Generator: Adobe Illustrator 25.4.1, SVG Export Plug-In . SVG Version: 6.00 Build 0)  -->
<svg version="1.1" id="Layer_1" xmlns="http://www.w3.org/2000/svg" xmlns:xlink="http://www.w3.org/1999/xlink" x="0px" y="0px"
	 viewBox="0 0 1921.7 438.3" style="enable-background:new 0 0 1921.7 438.3;" xml:space="preserve">
<style type="text/css">
	.st0{opacity:0.7;fill:#B7B6B3;enable-background:new    ;}
	.st1{opacity:0.8;fill:#B7B6B3;enable-background:new    ;}
	.st2{opacity:0.5;fill:#313131;enable-background:new    ;}
	.st3{opacity:0.8;fill:#32322F;enable-background:new    ;}
	.st4{opacity:0.7;fill:#313131;enable-background:new    ;}
	.st5{opacity:0.5;fill:#D6A500;}
	.st6{fill:#32322F;}
	.st7{opacity:0.5;fill:#00DBA7;enable-background:new    ;}
	.st8{opacity:0.5;fill:#D6A500;enable-background:new    ;}
</style>
<g>
	<g id="Layer_2_00000158011032187755055950000011267292041308667028_">
		<g id="Layer_1-2">
			<polygon class="st0" points="0,70.6 0,438.3 1721,438.3 			"/>
			<polygon class="st1" points="1921.7,24.3 0,376.1 0,438.3 1921.7,438.3 			"/>
			<polygon class="st2" points="1063.3,438.3 1921.7,438.3 1921.7,0 			"/>
			<polygon class="st3" points="0,70.6 0,438.3 1721,438.3 			"/>
			<polygon class="st4" points="1921.7,166.2 1218,438.3 1921.7,438.3 			"/>
			<polygon class="st5" points="1398,369.3 1219.8,438.3 1721.6,438.3 			"/>
			<polygon class="st6" points="0.9,23.3 0.9,438.3 1184.9,438.3 			"/>
			<polygon class="st7" points="1323.1,438.3 1327.9,438.3 1710.7,62.9 1704.7,64 			"/>
			<path class="st8" d="M1920.8,165.1l-706.5,273.1h7.3l700-270.6V165C1921.4,165,1921.1,165.1,1920.8,165.1z"/>
		</g>
	</g>
</g>
</svg>
